<svg width="287" height="288" viewBox="0 0 287 288" fill="none" xmlns="http://www.w3.org/2000/svg">
<g clip-path="url(#clip0_1_195)">
<path d="M2.01663 286.875L2.56862 286.321L2.21445 285.968L5.01837 283.154L5.37254 283.507L8.17646 280.694L7.82229 280.341L10.6262 277.527L10.9804 277.88L13.7843 275.066L13.4302 274.713L16.2341 271.9L16.5882 272.252L19.3922 269.439L19.038 269.086L21.8419 266.272L22.1961 266.625L25 263.811L24.6458 263.458L27.4497 260.645L27.8039 260.998L30.6078 258.184L30.2537 257.831L33.0576 255.017L33.4118 255.37L36.2157 252.556L35.8615 252.203L38.6654 249.39L39.0196 249.743L41.8235 246.929L41.4694 246.576L44.2733 243.762L44.6275 244.115L47.4314 241.301L47.0772 240.949L49.8811 238.135L50.2353 238.488L53.0392 235.674L52.6851 235.321L55.489 232.507L55.8431 232.86L58.6471 230.047L58.2929 229.694L61.0968 226.88L61.451 227.233L64.2549 224.419L63.9007 224.066L66.7047 221.252L67.0588 221.605L69.8627 218.792L69.5086 218.439L72.3125 215.625L72.6667 215.978L75.4706 213.164L75.1164 212.811L77.9203 209.998L78.2745 210.35L81.0784 207.537L80.7243 207.184L83.5282 204.37L83.8824 204.723L86.6863 201.909L86.3321 201.556L89.136 198.743L89.4902 199.096L92.2941 196.282L91.9399 195.929L94.7439 193.115L95.098 193.468L97.9019 190.654L97.5478 190.301L100.352 187.488L100.706 187.841L103.509 185.027L103.155 184.674L105.959 181.86L106.313 182.213L109.117 179.4L108.763 179.047L111.567 176.233L111.921 176.586L114.725 173.772L114.371 173.419L117.175 170.605L117.529 170.958L120.333 168.145L119.979 167.792L122.783 164.978L123.137 165.331L125.941 162.517L125.586 162.164L128.39 159.351L128.745 159.703L131.548 156.89L131.194 156.537L133.998 153.723L134.352 154.076L137.156 151.262L136.802 150.909L139.606 148.096L139.96 148.449L142.764 145.635L142.41 145.282L145.214 142.468L145.568 142.821L148.372 140.007L148.018 139.655L150.822 136.841L151.176 137.194L153.98 134.38L153.626 134.027L156.43 131.213L156.784 131.566L159.588 128.753L159.233 128.4L162.037 125.586L162.392 125.939L165.195 123.125L164.841 122.772L167.645 119.958L167.999 120.311L170.803 117.498L170.449 117.145L173.253 114.331L173.607 114.684L176.411 111.87L176.057 111.517L178.861 108.704L179.215 109.057L182.019 106.243L181.665 105.89L184.469 103.076L184.823 103.429L187.627 100.615L187.273 100.262L190.077 97.4486L190.431 97.8015L193.235 94.9878L192.88 94.6348L195.684 91.8211L196.039 92.1741L198.843 89.3603L198.488 89.0074L201.292 86.1937L201.646 86.5466L204.45 83.7329L204.096 83.3799L206.9 80.5662L207.254 80.9191L210.058 78.1054L209.704 77.7525L212.508 74.9387L212.862 75.2917L215.666 72.4779L215.312 72.125L218.116 69.3113L218.47 69.6642L221.274 66.8505L220.92 66.4975L223.724 63.6838L224.078 64.0367L226.882 61.223L226.528 60.8701L229.332 58.0563L229.686 58.4093L232.49 55.5956L232.135 55.2426L234.939 52.4289L235.294 52.7818L238.097 49.9681L237.743 49.6151L240.547 46.8014L240.901 47.1543L243.705 44.3406L243.351 43.9877L246.155 41.174L246.509 41.5269L249.313 38.7132L248.959 38.3602L251.763 35.5465L252.117 35.8994L254.921 33.0857L254.567 32.7328L257.371 29.919L257.725 30.272L260.53 27.4582L260.176 27.1053L262.979 24.2916L263.333 24.6445L266.138 21.8308L265.784 21.4778L268.587 18.6641L268.941 19.017L271.746 16.2033L271.391 15.8504L274.194 13.0366L274.549 13.3896L277.353 10.5758L276.999 10.2229L279.802 7.40917L280.156 7.76211L282.961 4.94837L282.607 4.59544L285.41 1.78171L285.764 2.13464L286.312 1.58496V2.36794H286.812V6.35405H286.312V10.3402H286.812V14.3263H286.312V18.3124H286.812V22.2985H286.312V26.2846H286.812V30.2707H286.312V34.2568H286.812V38.243H286.312V42.2291H286.812V46.2152H286.312V50.2013H286.812V54.1874H286.312V58.1735H286.812V62.1596H286.312V66.1457H286.812V70.1318H286.312V74.118H286.812V78.1041H286.312V82.0902H286.812V86.0763H286.312V90.0624H286.812V94.0485H286.312V98.0346H286.812V102.021H286.312V106.007H286.812V109.993H286.312V113.979H286.812V117.965H286.312V121.951H286.812V125.938H286.312V129.924H286.812V133.91H286.312V137.896H286.812V141.882H286.312V145.868H286.812V149.854H286.312V153.84H286.812V157.826H286.312V161.813H286.812V165.799H286.312V169.785H286.812V173.771H286.312V177.757H286.812V181.743H286.312V185.729H286.812V189.715H286.312V193.701H286.812V197.688H286.312V201.674H286.812V205.66H286.312V209.646H286.812V213.632H286.312V217.618H286.812V221.604H286.312V225.59H286.812V229.577H286.312V233.563H286.812V237.549H286.312V241.535H286.812V245.521H286.312V249.507H286.812V253.493H286.312V257.479H286.812V261.465H286.312V265.452H286.812V269.438H286.312V273.424H286.812V277.41H286.312V281.396H286.812V285.382H286.312V286.875H284.827V287.375H280.854V286.875H276.882V287.375H272.909V286.875H268.938V287.375H264.966V286.875H260.993V287.375H257.02V286.875H253.048V287.375H249.076V286.875H245.104V287.375H241.131V286.875H237.159V287.375H233.187V286.875H229.215V287.375H225.243V286.875H221.27V287.375H217.298V286.875H213.326V287.375H209.354V286.875H205.381V287.375H201.409V286.875H197.437V287.375H193.465V286.875H189.493V287.375H185.52V286.875H181.548V287.375H177.576V286.875H173.604V287.375H169.631V286.875H165.659V287.375H161.687V286.875H157.715V287.375H153.743V286.875H149.77V287.375H145.798V286.875H141.826V287.375H137.854V286.875H133.881V287.375H129.909V286.875H125.937V287.375H121.965V286.875H117.993V287.375H114.02V286.875H110.048V287.375H106.076V286.875H102.104V287.375H98.1319V286.875H94.1596V287.375H90.1874V286.875H86.2152V287.375H82.243V286.875H78.2707V287.375H74.2985V286.875H70.3263V287.375H66.354V286.875H62.3818V287.375H58.4096V286.875H54.4373V287.375H50.4651V286.875H46.4929V287.375H42.5207V286.875H38.5484V287.375H34.5762V286.875H30.604V287.375H26.6317V286.875H22.6595V287.375H18.6873V286.875H14.7151V287.375H10.7428V286.875H6.7706V287.375H2.79835V286.875H2.01663Z" stroke="#353535" stroke-dasharray="4 4"/>
</g>
<defs>
<clipPath id="clip0_1_195">
<rect width="286" height="287" fill="white" transform="translate(0.8125 0.375)"/>
</clipPath>
</defs>
</svg>
